<?xml version="1.0" standalone="no"?>
<!DOCTYPE svg PUBLIC "-//W3C//DTD SVG 20010904//EN" "http://www.w3.org/TR/2001/REC-SVG-20010904/DTD/svg10.dtd">
<!-- Created using Karbon, part of Calligra: http://www.calligra.org/karbon -->
<svg xmlns="http://www.w3.org/2000/svg" xmlns:xlink="http://www.w3.org/1999/xlink" width="38.4pt" height="38.4pt">
<defs/>
<g id="layer0">
  <path id="shape0" transform="translate(10, 4)" fill="#f6f5f5" d="M14 0C6.27 0 0 6.27 0 14C0 24.5 14 40 14 40C14 40 28 24.5 28 14C28 6.27 21.73 0 14 0ZM14 19C11.24 19 9 16.76 9 14C9 11.24 11.24 9 14 9C16.76 9 19 11.24 19 14C19 16.76 16.76 19 14 19Z"/>
  <path id="shape1" transform="" fill="none" d="M0 0L48 0L48 48L0 48Z"/>
 </g>
</svg>
