<?xml version="1.0" standalone="no"?>
<!DOCTYPE svg PUBLIC "-//W3C//DTD SVG 20010904//EN" "http://www.w3.org/TR/2001/REC-SVG-20010904/DTD/svg10.dtd">
<!-- Created using Karbon, part of Calligra: http://www.calligra.org/karbon -->
<svg xmlns="http://www.w3.org/2000/svg" xmlns:xlink="http://www.w3.org/1999/xlink" width="38.4pt" height="38.4pt">
<defs/>
<g id="layer0">
  <path id="shape0" transform="" fill="none" d="M0 0L48 0L48 48L0 48Z"/>
  <path id="shape1" transform="translate(4, 4)" fill="#e9e8e8" d="M20.0097 0C8.94881 0 0 8.95882 0 20.0197C0 31.0806 8.94881 40.0394 20.0097 40.0394C31.0706 40.0394 40.0394 31.0806 40.0394 20.0197C40.0394 8.95882 31.0706 0 20.0097 0ZM33.8734 12.0118L27.9675 12.0118C27.3169 9.50937 26.406 7.107 25.2048 4.88481C28.8885 6.14605 31.9515 8.69857 33.8734 12.0118ZM20.0197 4.07401C21.6914 6.47638 22.9926 9.14901 23.8435 12.0118L16.196 12.0118C17.0468 9.14901 18.3481 6.47638 20.0197 4.07401ZM4.52446 24.0237C4.19413 22.7424 4.00394 21.4011 4.00394 20.0197C4.00394 18.6384 4.19413 17.297 4.52446 16.0158L11.2811 16.0158C11.121 17.3271 11.0108 18.6584 11.0108 20.0197C11.0108 21.3811 11.121 22.7124 11.2911 24.0237ZM6.15606 28.0276L12.0619 28.0276C12.7125 30.5301 13.6234 32.9324 14.8246 35.1646C11.141 33.9034 8.07796 31.3409 6.15606 28.0276ZM12.0619 12.0118L6.15606 12.0118C8.07796 8.69857 11.141 6.13604 14.8246 4.8748C13.6234 7.107 12.7125 9.50937 12.0619 12.0118ZM20.0197 35.9654C18.3581 33.5631 17.0568 30.8904 16.196 28.0276L23.8435 28.0276C22.9826 30.8904 21.6814 33.5631 20.0197 35.9654ZM24.7043 24.0237L15.3351 24.0237C15.1449 22.7124 15.0148 21.3811 15.0148 20.0197C15.0148 18.6584 15.1449 17.3271 15.3351 16.0158L24.7043 16.0158C24.8945 17.3271 25.0246 18.6584 25.0246 20.0197C25.0246 21.3811 24.8945 22.7124 24.7043 24.0237ZM25.2148 35.1546C26.416 32.9224 27.3269 30.5301 27.9776 28.0276L33.8834 28.0276C31.9515 31.3409 28.8885 33.8934 25.2148 35.1546ZM28.7483 24.0237C28.9085 22.7124 29.0286 21.3811 29.0286 20.0197C29.0286 18.6584 28.9185 17.3271 28.7483 16.0158L35.505 16.0158C35.8353 17.297 36.0355 18.6384 36.0355 20.0197C36.0355 21.4011 35.8453 22.7424 35.505 24.0237Z"/>
 </g>
</svg>
